<svg id="e969cf80-7db8-4c12-8084-28385049b5e3" data-name="Logo Jaarbeurs" xmlns="http://www.w3.org/2000/svg" viewBox="0 0 351 108" class="f-svg" preserveAspectRatio="xMidYMid meet"><defs><style>.f088c2d7-93b0-4501-96ef-754698a2f1db{fill:#fefefe}</style></defs><path id="a4675612-c9d1-4094-916f-6bcceba9b49c" data-name="Background" fill="#d91001" d="M0 0h351v108H0z"/><path id="b8ab3441-d08c-4d34-a0ad-62957112daa5" data-name="J" class="f088c2d7-93b0-4501-96ef-754698a2f1db" d="M56.4 40.1v12.6a9.22 9.22 0 01-1 4.9 4 4 0 01-3.6 1.7 5.93 5.93 0 01-2.3-.5 4 4 0 01-1.6-1.3 5.08 5.08 0 01-.9-1.8 7.61 7.61 0 01-.3-2.1V53l-6.5 2.4a8.75 8.75 0 00.7 3.5 8.25 8.25 0 002 3.2 10 10 0 003.6 2.1 14.72 14.72 0 005.1.8c4.1 0 7.1-1 9.1-3s3.1-5 3.1-8.7V37.5z" transform="translate(.5 -.5)"/><path id="b34a625d-b68b-4631-b58a-8406f464ada3" data-name="A" class="f088c2d7-93b0-4501-96ef-754698a2f1db" d="M85.5 59.6H73.8l-1.7 4.7h-7.7l11-25.8h9.1l10.8 25.8h-8.2zm-9.9-4.9h8.2l-4.1-10.5z" transform="translate(.5 -.5)"/><path id="e18e968c-4779-41dd-bed7-4f7173437d18" data-name="A" class="f088c2d7-93b0-4501-96ef-754698a2f1db" d="M115.4 59.6h-11.7l-1.6 4.7h-7.8l11-25.8h9.1l10.8 25.8H117zm-9.9-4.9h8.2l-4-10.5z" transform="translate(.5 -.5)"/><path id="e28eb87c-b467-4faf-b617-8ea651d79887" data-name="R" class="f088c2d7-93b0-4501-96ef-754698a2f1db" d="M146.4 64.3a7.61 7.61 0 01-1.2-1.9c-.2-.7-.5-1.4-.7-2.1s-.4-1.4-.6-2a5.56 5.56 0 00-.9-1.7 4.43 4.43 0 00-1.5-1.2 5.59 5.59 0 00-2.5-.5h-4.3v9.4h-7.3V38.5h14.1c4.2 0 7.2.6 9.1 1.9a6.23 6.23 0 012.7 5.5 6.3 6.3 0 01-.7 3 7.56 7.56 0 01-1.9 2.1 8.45 8.45 0 01-2.7 1.3 19.09 19.09 0 01-3.3.6 6.91 6.91 0 015.6 2.3 8.78 8.78 0 011.2 2.1 16.88 16.88 0 01.8 2.4c.2.8.5 1.6.7 2.5a7.76 7.76 0 001.2 2.2zm-5.5-14.1c3.1 0 4.7-1.1 4.7-3.2s-1.6-3.2-4.7-3.2h-6.3v6.4z" transform="translate(.5 -.5)"/><path id="a35d12ac-666c-4c05-85b0-95acf923079a" data-name="B" class="f088c2d7-93b0-4501-96ef-754698a2f1db" d="M157.7 64.3V38.5h15a21.52 21.52 0 014.3.4 9.33 9.33 0 013.3 1.2 5.3 5.3 0 012.1 2.1 5.66 5.66 0 01.7 3.1 4.94 4.94 0 01-1.8 4.1 10.41 10.41 0 01-4.8 1.8 9.88 9.88 0 015.7 1.8 5.45 5.45 0 012.1 4.3 7.17 7.17 0 01-.6 2.9 4.89 4.89 0 01-1.8 2.2 10.36 10.36 0 01-3.2 1.5 18.31 18.31 0 01-4.7.5zM172.4 49a4.65 4.65 0 002.3-.6 2.43 2.43 0 00.9-2.1 2 2 0 00-.9-1.9 4.1 4.1 0 00-2.4-.6H165V49zm.5 10a4.84 4.84 0 002.6-.7 2.61 2.61 0 001.1-2.1 2.31 2.31 0 00-1.1-2 4.84 4.84 0 00-2.6-.7H165V59z" transform="translate(.5 -.5)"/><path id="bb4b12d1-4d4d-4961-b2ce-d53f2552a96d" data-name="E" class="f088c2d7-93b0-4501-96ef-754698a2f1db" d="M187.9 64.3V38.5h23.8v5.8h-16.5v4.4H208V54h-12.8v4.4h17.3v5.9z" transform="translate(.5 -.5)"/><path id="b5a51fcc-d6ce-4f3a-80ad-c1f4d12809a5" data-name="U" class="f088c2d7-93b0-4501-96ef-754698a2f1db" d="M235.5 40.2v12.3a11.15 11.15 0 01-.5 3.1 5.71 5.71 0 01-1.3 2.1 5.61 5.61 0 01-2 1.2 9.86 9.86 0 01-2.4.3 10.68 10.68 0 01-2.5-.3 4.15 4.15 0 01-2-1.2 6 6 0 01-1.4-2.1 10.59 10.59 0 01-.5-3.1V37.6l-7.3 2.7v11.5c0 4.4 1.1 7.7 3.3 9.8s5.7 3.2 10.4 3.2 8.1-1.1 10.3-3.2 3.2-5.4 3.2-9.8V37.6z" transform="translate(.5 -.5)"/><path id="e7b3d2a0-eacd-4c5f-af07-cd6fdbbe0718" data-name="R" class="f088c2d7-93b0-4501-96ef-754698a2f1db" d="M266.6 64.3a7.61 7.61 0 01-1.2-1.9c-.2-.7-.5-1.4-.7-2.1s-.4-1.4-.6-2a5.56 5.56 0 00-.9-1.7 4.43 4.43 0 00-1.5-1.2 5.59 5.59 0 00-2.5-.5h-4.3v9.4h-7.3V38.5h14.1c4.2 0 7.2.6 9.1 1.9a6.23 6.23 0 012.7 5.5 6.3 6.3 0 01-.7 3 7.56 7.56 0 01-1.9 2.1 8.45 8.45 0 01-2.7 1.3 19.09 19.09 0 01-3.3.6 6.91 6.91 0 015.6 2.3 8.78 8.78 0 011.2 2.1 16.88 16.88 0 01.8 2.4c.2.8.5 1.6.7 2.5a5.7 5.7 0 001.1 2.2zm-5.5-14.1c3.1 0 4.7-1.1 4.7-3.2s-1.6-3.2-4.7-3.2h-6.3v6.4z" transform="translate(.5 -.5)"/><path id="bc9efcb9-c9b7-403e-9e05-000a9053c892" data-name="S" class="f088c2d7-93b0-4501-96ef-754698a2f1db" d="M302.8 53.3a6 6 0 00-2.1-2.1 13 13 0 00-3.2-1.4 27.13 27.13 0 00-4.1-.9l-4.3-.7a21.07 21.07 0 01-3.6-.9c-.9-.4-1.4-.9-1.4-1.5 0-1.4 1.7-2.1 5-2.1a17.74 17.74 0 015.6.9 10.91 10.91 0 013.1 1.4l4.3-4.3a13.73 13.73 0 00-2-1.3 13.9 13.9 0 00-2.8-1.2 22.51 22.51 0 00-3.5-.9 34 34 0 00-4.5-.3 21 21 0 00-5.6.7 13.22 13.22 0 00-4.1 1.7 6.71 6.71 0 00-2.4 2.6 7.22 7.22 0 00-.8 3.2 6.09 6.09 0 00.8 3.2 7.4 7.4 0 002.1 2.2 12.32 12.32 0 003.1 1.4 23.69 23.69 0 003.6.9l4.8.8a35.89 35.89 0 013.5.8c.8.3 1.2.7 1.2 1.3a1.71 1.71 0 01-1.3 1.7 8.22 8.22 0 01-3.8.6 20.52 20.52 0 01-6.5-1 15.76 15.76 0 01-3.5-1.6L276 61a17.61 17.61 0 002.3 1.4 19.78 19.78 0 003.1 1.2 26.15 26.15 0 003.8.9 31.08 31.08 0 004.3.3 22.57 22.57 0 006.3-.7 11.6 11.6 0 004.3-1.8 8.09 8.09 0 002.5-2.7 7.64 7.64 0 00.8-3.3 5.41 5.41 0 00-.6-3" transform="translate(.5 -.5)"/><path id="a8fe6b4c-31bd-4ed4-9af3-2142d6b98f04" data-name="Border" class="f088c2d7-93b0-4501-96ef-754698a2f1db" d="M27.3 24.7v55.1h45.8V79h-45V25.6h291.8v53.3h-45v.8h45.9v-55z" transform="translate(.5 -.5)"/><path id="a70cd0d7-bee6-4453-b0d2-bad6a05248cd" data-name="a" class="f088c2d7-93b0-4501-96ef-754698a2f1db" d="M90.8 83.2a1 1 0 01-.9-.4 2.38 2.38 0 01-.3-1.2v-.4a3.55 3.55 0 01-.4.9 4.35 4.35 0 01-.7.6 1.08 1.08 0 01-.7.3 2.2 2.2 0 01-.8.1 3 3 0 01-1.5-.5 1.29 1.29 0 01-.5-1.1 1.69 1.69 0 01.3-1 1.78 1.78 0 01.8-.7 3.7 3.7 0 011.1-.5 7.72 7.72 0 011.5-.2h.8v-.6a1.56 1.56 0 00-2.6-1.1 1.28 1.28 0 00-.4 1v.3h-1.1c0-.1-.1-.2 0-.2v-.2a2.92 2.92 0 01.2-.9 1.79 1.79 0 01.5-.7 2.18 2.18 0 01.8-.5A3.59 3.59 0 0188 76a3.75 3.75 0 011.1.1 1.37 1.37 0 01.8.5c.2.2.4.5.6.7a2.54 2.54 0 01.2 1.2v.8a2.72 2.72 0 000 .9v2a.35.35 0 00.1.2.31.31 0 01.2.1h.1a.6.6 0 00.4-.1l.1.7c-.1.1-.2.1-.4.1h-.4m-1.9-3.5a4.49 4.49 0 00-1.9.5 1.23 1.23 0 00-.7 1.1 1.45 1.45 0 00.2.7 1.14 1.14 0 00.8.3 2.66 2.66 0 001.2-.3 4.3 4.3 0 001-.9v-1.4z" transform="translate(.5 -.5)"/><path id="ebf00e66-c0f1-41c7-8f85-1a75be93c0af" data-name="t" class="f088c2d7-93b0-4501-96ef-754698a2f1db" d="M95.4 83.2a1.66 1.66 0 01-1.3-.5 2.3 2.3 0 01-.4-1.4v-4.4h-1.2V76h.7a.53.53 0 00.6-.6v-.5l1.1-1.8v2.8h1.5v.9h-1.5v4.3a1.49 1.49 0 00.2.9c.1.2.3.2.6.2h.4a.6.6 0 00.4-.1l.2.8a1.42 1.42 0 01-.6.2 1.7 1.7 0 01-.7.1" transform="translate(.5 -.5)"/><path id="f9c43b44-89ac-401e-a9e8-730bd719c33d" data-name="t" class="f088c2d7-93b0-4501-96ef-754698a2f1db" d="M100.4 83.2a1.9 1.9 0 01-1.3-.5 2.3 2.3 0 01-.4-1.4v-4.4h-1.1V76h.7a.56.56 0 00.6-.5v-.6l1.1-1.8v2.8h1.5v.9H100v4.3a1.49 1.49 0 00.2.9c.1.2.4.2.6.2h.4a.6.6 0 00.4-.1l.2.8a1.42 1.42 0 01-.6.2 2.2 2.2 0 01-.8.1" transform="translate(.5 -.5)"/><path id="f23795ea-8ae6-4359-8982-4f91d1bfd08f" data-name="r" class="f088c2d7-93b0-4501-96ef-754698a2f1db" d="M103.5 83.1V76h.8l.3 2a3.55 3.55 0 01.2-1 3 3 0 01.5-.7 2.09 2.09 0 01.6-.4 1.27 1.27 0 01.6-.1h.8l-.1 1.1h-1.1c-.2.1-.3.1-.5.2a1.76 1.76 0 00-.5.4 1.61 1.61 0 00-.4.7v4.9z" transform="translate(.5 -.5)"/><path id="ba704260-1678-4d8b-9960-9723f593dced" data-name="a" class="f088c2d7-93b0-4501-96ef-754698a2f1db" d="M114 83.2a1.28 1.28 0 01-1-.4 2.38 2.38 0 01-.3-1.2v-.4a3.55 3.55 0 01-.4.9 4.35 4.35 0 01-.7.6 1.08 1.08 0 01-.7.3 2.2 2.2 0 01-.8.1 2.39 2.39 0 01-1.4-.5 1.61 1.61 0 01-.6-1.3 1.69 1.69 0 01.3-1 1.78 1.78 0 01.8-.7 3.7 3.7 0 011.1-.5 7.72 7.72 0 011.5-.2h.8v-.6a1.56 1.56 0 00-2.6-1.1 1 1 0 00-.4 1v.3h-1.1c0-.1-.1-.2 0-.2v-.2a2.92 2.92 0 01.2-.9 1.79 1.79 0 01.5-.7 2.18 2.18 0 01.8-.5 3.59 3.59 0 011.1-.2 3.75 3.75 0 011.1.1 1.37 1.37 0 01.8.5c.2.2.4.5.6.7a2.54 2.54 0 01.2 1.2v.8c0 .3-.1.6-.1.9v2a.35.35 0 00.1.2.31.31 0 01.2.1h.2a.6.6 0 00.4-.1l.1.7c-.1.1-.2.1-.4.1 0 .2-.2.2-.3.2m-2-3.5a4.49 4.49 0 00-1.9.5 1.23 1.23 0 00-.7 1.1 1.45 1.45 0 00.2.7 1.14 1.14 0 00.8.3 2.66 2.66 0 001.2-.3 4.3 4.3 0 001-.9v-1.4z" transform="translate(.5 -.5)"/><path id="a15f5a51-4d05-4e60-a5d1-bb4b44335844" data-name="c" class="f088c2d7-93b0-4501-96ef-754698a2f1db" d="M115.9 79.5a4.15 4.15 0 01.3-1.6 2.92 2.92 0 01.7-1.2 3.59 3.59 0 011-.7 5.07 5.07 0 011.3-.2 3.4 3.4 0 011 .1 3.55 3.55 0 01.9.4 1.34 1.34 0 01.6.7 1.69 1.69 0 01.3 1l-1.1.2a1.1 1.1 0 00-.6-1 1.59 1.59 0 00-1.2-.4 2.2 2.2 0 00-.8.1 2.65 2.65 0 00-.6.5 2 2 0 00-.4.8 5.28 5.28 0 00-.1 1.3 5.7 5.7 0 00.1 1.3 2 2 0 00.4.8 2.65 2.65 0 00.6.5 2 2 0 00.8.1 1.92 1.92 0 001.2-.4 2.07 2.07 0 00.6-1l1.1.2a1.93 1.93 0 01-.3 1 4.35 4.35 0 01-.6.7c-.3.2-.6.3-.9.5a3.4 3.4 0 01-1 .1 5.85 5.85 0 01-1.3-.2 2.29 2.29 0 01-1-.7 2.4 2.4 0 01-.7-1.2 5.08 5.08 0 01-.3-1.7" transform="translate(.5 -.5)"/><path id="b39fe254-0c2e-4ea2-b415-817c70f3f2d6" data-name="t" class="f088c2d7-93b0-4501-96ef-754698a2f1db" d="M126.2 83.2a1.3 1.3 0 01-1.3-.5 2.3 2.3 0 01-.4-1.4v-4.4h-1.2V76h.7a.53.53 0 00.6-.6v-.5l1.1-1.8v2.8h1.4v.9h-1.4v4.3c0 .5 0 .7.2.9s.3.2.5.2h.4a.37.37 0 00.3-.1l.2.8a1.42 1.42 0 01-.6.2.75.75 0 01-.5.1" transform="translate(.5 -.5)"/><path id="e285cc35-6b9f-47ee-975c-cc11becb1a9b" data-name="Dash" class="f088c2d7-93b0-4501-96ef-754698a2f1db" d="M131 79.8h3.5V79H131z" transform="translate(.5 -.5)"/><path id="f1ba0940-57ec-48f7-b14c-8689dc795fa3" data-name="e" class="f088c2d7-93b0-4501-96ef-754698a2f1db" d="M141.9 83.2a5.85 5.85 0 01-1.3-.2 2.29 2.29 0 01-1-.7 3.46 3.46 0 01-.7-1.2 4.68 4.68 0 01-.2-1.7 7.77 7.77 0 01.2-1.6 7.46 7.46 0 01.7-1.2 3.59 3.59 0 011-.7 2.74 2.74 0 011.3-.2 3.53 3.53 0 011.4.3 2.18 2.18 0 01.9.7 2.38 2.38 0 01.6 1.1 5.07 5.07 0 01.2 1.3v.7h-4.9a3.29 3.29 0 00.6 1.9 2 2 0 001.4.6 1.5 1.5 0 001.1-.4 2.38 2.38 0 00.6-1.1l1.1.2a2.92 2.92 0 01-.2.9 4.35 4.35 0 01-.6.7 4.05 4.05 0 01-.9.5 7.17 7.17 0 01-1.3.1m-.1-6.4a2.11 2.11 0 00-1.3.5 2.93 2.93 0 00-.7 1.6h3.7a3 3 0 00-.5-1.6 1.5 1.5 0 00-1.2-.5" transform="translate(.5 -.5)"/><path id="b6efa048-d12e-45d5-80e0-3f74109eabe0" data-name="n" class="f088c2d7-93b0-4501-96ef-754698a2f1db" d="M151.4 83.1v-4.5a2.3 2.3 0 00-.4-1.4 1.5 1.5 0 00-1.1-.4h-.5c-.2.1-.4.1-.5.2a.78.78 0 00-.4.4c-.1.2-.3.4-.3.6v5.1H147V76h.8l.2 1.7a1.94 1.94 0 01.9-1.4 2.3 2.3 0 011.4-.4 2.77 2.77 0 01.9.1 1.79 1.79 0 01.7.5 2.18 2.18 0 01.5.8 2.54 2.54 0 01.2 1.2v4.7h-1.2z" transform="translate(.5 -.5)"/><path id="b06cb7e4-a07e-43f6-9133-4a466a9912e0" data-name="g" class="f088c2d7-93b0-4501-96ef-754698a2f1db" d="M157.6 85.8a5.28 5.28 0 01-1.3-.1 2.66 2.66 0 01-1.2-.3 1.34 1.34 0 01-.7-.6.78.78 0 01-.2-.8 1.05 1.05 0 01.5-.9 3 3 0 011.5-.5 2.22 2.22 0 01-1.1-.5 1 1 0 01-.1-1.5 1.62 1.62 0 01.9-.5 2.7 2.7 0 01-.8-.7 1.8 1.8 0 01-.3-1.2 3.55 3.55 0 01.2-1 2.34 2.34 0 01.7-.7 3.55 3.55 0 01.9-.4 3.59 3.59 0 011.1-.2 3.65 3.65 0 011.5.3 1.45 1.45 0 011.5-1.4h.7l-.1 1.1h-.6a1.7 1.7 0 00-.7.1.86.86 0 00-.6.3 1.58 1.58 0 01.7.7 1.43 1.43 0 01.3 1.1 4.25 4.25 0 01-.2 1.1 1.58 1.58 0 01-.7.7 3.55 3.55 0 01-.9.4 3.4 3.4 0 01-1 .1h-.7a1.85 1.85 0 01-.7-.2l-.3.3c-.1.1-.1.2-.1.4s.1.5.5.6a4.87 4.87 0 001.2.1h1.1a4.06 4.06 0 012.1.5 1.91 1.91 0 01.7 1.4 1.93 1.93 0 01-.3 1 2.7 2.7 0 01-.8.7 4.87 4.87 0 01-1.1.4 4.68 4.68 0 01-1.6.2m.1-.7a4.67 4.67 0 001.7-.3.87.87 0 00.6-.9 1 1 0 00-.5-.8 4 4 0 00-1.5-.3h-.7a3.19 3.19 0 00-1.4.3 1.15 1.15 0 00-.6.9.87.87 0 00.6.8 5.66 5.66 0 001.8.3m-.1-5.4a1.5 1.5 0 001.1-.4 1.66 1.66 0 00.5-1.2 1.27 1.27 0 00-.5-1.1 2.1 2.1 0 00-1.1-.4 1.92 1.92 0 00-1.2.4 1.61 1.61 0 00-.5 1.1 1.85 1.85 0 00.5 1.2 1.59 1.59 0 001.2.4" transform="translate(.5 -.5)"/><path id="adac701e-c25c-4972-a86a-3603ed7ede3d" data-name="a" class="f088c2d7-93b0-4501-96ef-754698a2f1db" d="M168.1 83.2a1.28 1.28 0 01-1-.4 2.38 2.38 0 01-.3-1.2l.1-.4a3.55 3.55 0 01-.4.9l-.6.6a1.08 1.08 0 01-.7.3 2.49 2.49 0 01-.8.1 2.39 2.39 0 01-1.4-.5 1.61 1.61 0 01-.6-1.3 1.69 1.69 0 01.3-1 1.58 1.58 0 01.7-.7 4.33 4.33 0 011.2-.5 7.72 7.72 0 011.5-.2h.8v-.6a1.56 1.56 0 00-2.6-1.1 1 1 0 00-.4 1v.3h-1.1v-.4a2.92 2.92 0 01.2-.9 1.34 1.34 0 01.6-.7 2.18 2.18 0 01.8-.5 3.59 3.59 0 011.1-.2 4.1 4.1 0 011.1.1 2 2 0 01.9.5c.2.2.4.5.6.7a2.54 2.54 0 01.2 1.2V82a.35.35 0 00.1.2.1.1 0 01.1.1h.2a.6.6 0 00.4-.1l-.1.8a.6.6 0 01-.4.1 1.09 1.09 0 01-.5.1m-2.1-3.5a3.74 3.74 0 00-1.8.5 1.23 1.23 0 00-.7 1.1.91.91 0 00.3.7 1.14 1.14 0 00.8.3 2.66 2.66 0 001.2-.3 2.58 2.58 0 00.9-.9v-1.4z" transform="translate(.5 -.5)"/><path id="b2b97333-386c-43ae-8fdb-682f0917ee42" data-name="g" class="f088c2d7-93b0-4501-96ef-754698a2f1db" d="M173.4 85.8a6.6 6.6 0 01-1.4-.1 2.66 2.66 0 01-1.2-.3 1.34 1.34 0 01-.7-.6.78.78 0 01-.2-.8 1.05 1.05 0 01.5-.9 3 3 0 011.5-.5 2.22 2.22 0 01-1.1-.5 1 1 0 01-.1-1.5 1.35 1.35 0 01.9-.5 2.7 2.7 0 01-.8-.7 1.8 1.8 0 01-.3-1.2 3.55 3.55 0 01.2-1 4.35 4.35 0 01.6-.7 3.55 3.55 0 01.9-.4 3.59 3.59 0 011.1-.2 3.65 3.65 0 011.5.3 1.45 1.45 0 011.5-1.4h.7l-.1 1.1h-.6a1.7 1.7 0 00-.7.1.86.86 0 00-.6.3 1.58 1.58 0 01.7.7 1.43 1.43 0 01.3 1.1 4.25 4.25 0 01-.2 1.1 1.58 1.58 0 01-.7.7 3.55 3.55 0 01-.9.4 3.4 3.4 0 01-1 .1h-.7a1.85 1.85 0 01-.7-.2l-.3.3c-.1.1-.1.2-.1.4a.63.63 0 00.5.6 4.87 4.87 0 001.2.1h1.1a4.06 4.06 0 012.1.5 1.91 1.91 0 01.7 1.4 1.93 1.93 0 01-.3 1 2.7 2.7 0 01-.8.7 4.87 4.87 0 01-1.1.4 3.64 3.64 0 01-1.4.2m0-.7a4.67 4.67 0 001.7-.3.87.87 0 00.6-.9.89.89 0 00-.5-.8 3.93 3.93 0 00-1.4-.3h-.8a3.19 3.19 0 00-1.4.3 1.15 1.15 0 00-.6.9.87.87 0 00.6.8 5.66 5.66 0 001.8.3m-.1-5.4a1.5 1.5 0 001.1-.4 1.66 1.66 0 00.5-1.2 1.61 1.61 0 00-.5-1.1 2.1 2.1 0 00-1.1-.4 1.92 1.92 0 00-1.2.4 1.61 1.61 0 00-.5 1.1 1.85 1.85 0 00.5 1.2 1.75 1.75 0 001.2.4" transform="translate(.5 -.5)"/><path id="e05d518f-3f25-4899-be88-293f34aa3b0c" data-name="e" class="f088c2d7-93b0-4501-96ef-754698a2f1db" d="M181.3 83.2a5.85 5.85 0 01-1.3-.2 2.29 2.29 0 01-1-.7 3.46 3.46 0 01-.7-1.2 4.68 4.68 0 01-.2-1.7 7.77 7.77 0 01.2-1.6 7.46 7.46 0 01.7-1.2 3.59 3.59 0 011-.7 5 5 0 011.2-.2 3.19 3.19 0 011.4.3 2.18 2.18 0 01.9.7 10.91 10.91 0 01.6 1.1 5.07 5.07 0 01.2 1.3v.7h-4.9a3.29 3.29 0 00.6 1.9 2 2 0 001.4.6 1.5 1.5 0 001.1-.4 2.38 2.38 0 00.6-1.1l1.1.2a1.61 1.61 0 01-.3.9 1.34 1.34 0 01-.6.7 4.05 4.05 0 01-.9.5 4.48 4.48 0 01-1.1.1m-.1-6.4a1.85 1.85 0 00-1.2.5 2.36 2.36 0 00-.7 1.6h3.7a3 3 0 00-.5-1.6 1.9 1.9 0 00-1.3-.5" transform="translate(.5 -.5)"/><path id="b5f5799c-996e-4540-b617-c3c7ad5cad16" data-name="Dash" class="f088c2d7-93b0-4501-96ef-754698a2f1db" d="M188.2 79.8h3.5V79h-3.5z" transform="translate(.5 -.5)"/><path id="a3db0a2d-2ac9-42b5-9220-8564f850196b" data-name="a" class="f088c2d7-93b0-4501-96ef-754698a2f1db" d="M201.6 83.2a1.28 1.28 0 01-1-.4 2.38 2.38 0 01-.3-1.2v-.4a3.55 3.55 0 01-.4.9 4.35 4.35 0 01-.7.6 1.08 1.08 0 01-.7.3 2.2 2.2 0 01-.8.1 2.39 2.39 0 01-1.4-.5 1.61 1.61 0 01-.6-1.3 1.69 1.69 0 01.3-1 1.78 1.78 0 01.8-.7 3.7 3.7 0 011.1-.5 7.72 7.72 0 011.5-.2h.8v-.6a1.56 1.56 0 00-2.6-1.1 1 1 0 00-.4 1v.3h-1.1c0-.1-.1-.2 0-.2v-.2a2.92 2.92 0 01.2-.9 1.79 1.79 0 01.5-.7 2.18 2.18 0 01.8-.5 3.59 3.59 0 011.1-.2 3.75 3.75 0 011.1.1 1.37 1.37 0 01.8.5 1.87 1.87 0 01.6.7 5 5 0 01.2 1.2v.8a2.72 2.72 0 000 .9v1.6a.6.6 0 00.1.4c0 .1 0 .2.1.2a.31.31 0 01.2.1h.2a.6.6 0 00.4-.1l.1.7c-.1.1-.2.1-.4.1a.65.65 0 01-.5.2m-2-3.5a4.49 4.49 0 00-1.9.5 1.23 1.23 0 00-.7 1.1.91.91 0 00.3.7 1.08 1.08 0 00.7.3 2.66 2.66 0 001.2-.3 4.3 4.3 0 001-.9v-1.4z" transform="translate(.5 -.5)"/><path id="b8c627ea-26f8-4b32-9d55-f1b1d686466a" data-name="c" class="f088c2d7-93b0-4501-96ef-754698a2f1db" d="M203.5 79.5a4.15 4.15 0 01.3-1.6 7.46 7.46 0 01.7-1.2 3.59 3.59 0 011-.7 2.54 2.54 0 011.2-.2 3.4 3.4 0 011 .1 3.55 3.55 0 01.9.4 1.34 1.34 0 01.6.7 1.69 1.69 0 01.3 1l-1.1.2a1.1 1.1 0 00-.6-1 1.59 1.59 0 00-1.2-.4 1.48 1.48 0 00-.7.1 2.65 2.65 0 00-.6.5 2 2 0 00-.4.8 5.28 5.28 0 00-.1 1.3 5.7 5.7 0 00.1 1.3 2 2 0 00.4.8 2.65 2.65 0 00.6.5 1.7 1.7 0 00.7.1 1.75 1.75 0 001.2-.4 2.07 2.07 0 00.6-1l1.1.2a1.93 1.93 0 01-.3 1 1.34 1.34 0 01-.6.7c-.3.2-.6.3-.9.5a3.4 3.4 0 01-1 .1 5 5 0 01-1.2-.2 2.29 2.29 0 01-1-.7 3.46 3.46 0 01-.7-1.2 5.08 5.08 0 01-.3-1.7" transform="translate(.5 -.5)"/><path id="b7d695fc-84cd-4100-8630-4c6d07a3ac6c" data-name="c" class="f088c2d7-93b0-4501-96ef-754698a2f1db" d="M211.2 79.5a7.77 7.77 0 01.2-1.6 7.46 7.46 0 01.7-1.2 3.59 3.59 0 011-.7 5 5 0 011.2-.2 4.1 4.1 0 011.1.1 2 2 0 01.8.4 2.34 2.34 0 01.7.7 2.93 2.93 0 01.3 1l-1.1.2a1.23 1.23 0 00-.5-1 1.75 1.75 0 00-1.2-.4 1.48 1.48 0 00-.7.1 2.65 2.65 0 00-.6.5 2 2 0 00-.4.8 5.28 5.28 0 00-.1 1.3 5.7 5.7 0 00.1 1.3 2 2 0 00.4.8 2.65 2.65 0 00.6.5 1.7 1.7 0 00.7.1 1.75 1.75 0 001.2-.4 1.39 1.39 0 00.5-1l1.1.2a1.93 1.93 0 01-.3 1 2.34 2.34 0 01-.7.7 3.51 3.51 0 01-.8.5 3.75 3.75 0 01-1.1.1 5 5 0 01-1.2-.2 2.29 2.29 0 01-1-.7 3.46 3.46 0 01-.7-1.2 9.85 9.85 0 01-.2-1.7" transform="translate(.5 -.5)"/><path id="a66d4d2e-5a55-4688-9eb2-57ddde7ff2e4" data-name="e" class="f088c2d7-93b0-4501-96ef-754698a2f1db" d="M222.1 83.2a5.85 5.85 0 01-1.3-.2 2.29 2.29 0 01-1-.7 2.4 2.4 0 01-.7-1.2 4.68 4.68 0 01-.2-1.7 7.77 7.77 0 01.2-1.6 3.75 3.75 0 01.7-1.2 3.59 3.59 0 011-.7 5.07 5.07 0 011.3-.2 3.19 3.19 0 011.4.3 2.18 2.18 0 01.9.7 10.91 10.91 0 01.6 1.1 5.07 5.07 0 01.2 1.3v.7h-4.9a3.29 3.29 0 00.6 1.9 2 2 0 001.4.6 1.5 1.5 0 001.1-.4 2.38 2.38 0 00.6-1.1l1.1.2a1.61 1.61 0 01-.3.9 1.34 1.34 0 01-.6.7 4.05 4.05 0 01-.9.5 5.28 5.28 0 01-1.2.1m0-6.4a1.85 1.85 0 00-1.2.5 2.36 2.36 0 00-.7 1.6h3.7a2.45 2.45 0 00-.6-1.6 1.85 1.85 0 00-1.2-.5" transform="translate(.5 -.5)"/><path id="b487e803-b78f-4c12-a697-bd92097c8b81" data-name="l" class="f088c2d7-93b0-4501-96ef-754698a2f1db" d="M227.2 83.1v-10h.9a.37.37 0 00.3-.1v10.1z" transform="translate(.5 -.5)"/><path id="abc4a74f-4b17-42b8-8cbc-bddcbd2a73ee" data-name="e" class="f088c2d7-93b0-4501-96ef-754698a2f1db" d="M233.7 83.2a5.85 5.85 0 01-1.3-.2 2.29 2.29 0 01-1-.7 3.46 3.46 0 01-.7-1.2 4.68 4.68 0 01-.2-1.7 7.77 7.77 0 01.2-1.6 7.46 7.46 0 01.7-1.2 3.59 3.59 0 011-.7 2.74 2.74 0 011.3-.2 3.53 3.53 0 011.4.3 2.18 2.18 0 01.9.7 10.91 10.91 0 01.6 1.1 5.07 5.07 0 01.2 1.3v.7h-4.9a3.29 3.29 0 00.6 1.9 2 2 0 001.4.6 1.5 1.5 0 001.1-.4 2.38 2.38 0 00.6-1.1l1.1.2a2.92 2.92 0 01-.2.9 4.35 4.35 0 01-.6.7 4.05 4.05 0 01-.9.5 6.15 6.15 0 01-1.3.1m0-6.4a2.11 2.11 0 00-1.3.5 2.93 2.93 0 00-.7 1.6h3.7a2.35 2.35 0 00-.5-1.6 1.5 1.5 0 00-1.2-.5" transform="translate(.5 -.5)"/><path id="eb3cc976-8e62-4e83-a7a4-5613ec54f62b" data-name="r" class="f088c2d7-93b0-4501-96ef-754698a2f1db" d="M238.9 83.1V76h.8l.2 2a1.93 1.93 0 01.3-1 1.61 1.61 0 01.4-.7 2.09 2.09 0 01.6-.4 1.48 1.48 0 01.7-.1h.7v1.1h-1a.76.76 0 00-.5.2 1.76 1.76 0 00-.5.4 1.61 1.61 0 00-.4.7v4.9z" transform="translate(.5 -.5)"/><path id="b78cbf8a-0df5-410a-b7b1-19a882e19cca" data-name="a" class="f088c2d7-93b0-4501-96ef-754698a2f1db" d="M249.3 83.2a1.28 1.28 0 01-1-.4 2.38 2.38 0 01-.3-1.2l.1-.4a3.55 3.55 0 01-.4.9l-.6.6a1.14 1.14 0 01-.8.3 2.2 2.2 0 01-.8.1 2.39 2.39 0 01-1.4-.5 1.61 1.61 0 01-.6-1.3 1.69 1.69 0 01.3-1 1.58 1.58 0 01.7-.7 6.12 6.12 0 011.2-.5 7.84 7.84 0 011.4-.2h.8v-.6a1.19 1.19 0 00-.4-1.1 1.71 1.71 0 00-2.2 0 1.28 1.28 0 00-.4 1v.3h-1.1v-.4a2.92 2.92 0 01.2-.9 1.34 1.34 0 01.6-.7 2.18 2.18 0 01.8-.5 3.59 3.59 0 011.1-.2 4.1 4.1 0 011.1.1 2 2 0 01.9.5c.2.2.4.5.6.7a5 5 0 01.2 1.2V80a2.72 2.72 0 000 .9V82a.35.35 0 00.1.2.1.1 0 01.1.1h.2a.6.6 0 00.4-.1l.2.7a.6.6 0 01-.4.1.73.73 0 01-.6.2m-2-3.5a4.49 4.49 0 00-1.9.5 1.36 1.36 0 00-.7 1.1.91.91 0 00.3.7 1.08 1.08 0 00.7.3 2.66 2.66 0 001.2-.3 2.58 2.58 0 00.9-.9v-1.4z" transform="translate(.5 -.5)"/><path id="b251196a-8e08-4a49-a01c-bc185a7e7e9e" data-name="t" class="f088c2d7-93b0-4501-96ef-754698a2f1db" d="M253.9 83.2a1.54 1.54 0 01-1.3-.5 2.3 2.3 0 01-.4-1.4v-4.4H251V76h.7a.53.53 0 00.6-.6v-.5l1.1-1.8v2.8h1.5v.9h-1.5v4.3c0 .5 0 .7.2.9a.45.45 0 00.6.2h.4a.37.37 0 00.3-.1l.2.8c-.1.1-.3.1-.5.2a2 2 0 01-.7.1" transform="translate(.5 -.5)"/><path id="ff35e8c2-2c8f-41e9-85ef-ddbcd5216f53" data-name="e" class="f088c2d7-93b0-4501-96ef-754698a2f1db" d="M259.6 83.2a5.85 5.85 0 01-1.3-.2 2.29 2.29 0 01-1-.7 3.46 3.46 0 01-.7-1.2 4.68 4.68 0 01-.2-1.7 7.77 7.77 0 01.2-1.6 7.46 7.46 0 01.7-1.2 3.59 3.59 0 011-.7 5 5 0 011.2-.2 3.19 3.19 0 011.4.3 2.18 2.18 0 01.9.7 10.91 10.91 0 01.6 1.1 5.07 5.07 0 01.2 1.3v.7h-4.9a3.29 3.29 0 00.6 1.9 2 2 0 001.4.6 1.5 1.5 0 001.1-.4 2.38 2.38 0 00.6-1.1l1.1.2a2.92 2.92 0 01-.2.9 4.35 4.35 0 01-.6.7 4.05 4.05 0 01-.9.5 5.74 5.74 0 01-1.2.1m-.1-6.4a1.85 1.85 0 00-1.2.5 2.93 2.93 0 00-.7 1.6h3.7a3 3 0 00-.5-1.6 1.9 1.9 0 00-1.3-.5" transform="translate(.5 -.5)"/></svg>